# xmcd CD database file
#
# Track frame offsets:
#	150
#	10850
#	30806
#	50466
#	68700
#	82423
#	97359
#	114871
#	129695
#	147019
#	165903
#	183992
#	199739
#	215996
#	240798
#
# Disc length: 3437 seconds
#
# Revision: 0
# Processed by: cddbd v1.5.1PL0 Copyright (c) Steve Scherf et al.
# Submitted via: CDex 1.51
#
DISCID=c80d6b0f
DTITLE=童子-T - 童夢
DYEAR=2005
DGENRE=Hip Hop
TTITLE0=手ぇあげてけ
TTITLE1=ファンファーレ
TTITLE2=勝利の女神 feat. 加藤ミリヤ
TTITLE3=Sky Triple Dancing feat. LITTLE
TTITLE4=東京童夢
TTITLE5=言葉はじくプロ
TTITLE6=男一匹 feat. HI-D,AKTION
TTITLE7=HOLD? feat. DJ OASIS,K DUB SHINE
TTITLE8=You May feat. YAMAKOU
TTITLE9=ROUTE 16 feat. LITTLE, Kayzabro for DS455,GDX,BIG RON
TTITLE10=蜃気楼 第二章
TTITLE11=甘く危険な香り feat. Soul Tribe Connection
TTITLE12=アイノカタチ feat. KREVA
TTITLE13=実りある人生を
TTITLE14=ここでこうして
EXTD=YEAR: 2005
EXTT0=
EXTT1=
EXTT2=
EXTT3=
EXTT4=
EXTT5=
EXTT6=
EXTT7=
EXTT8=
EXTT9=
EXTT10=
EXTT11=
EXTT12=
EXTT13=
EXTT14=
PLAYORDER=
